<svg xmlns="http://www.w3.org/2000/svg" viewBox="0 0 64 64">
  <rect width="64" height="64" rx="11" fill="#1C1C1C"/>
  <g transform="translate(32, 32) scale(0.316) translate(-5, -14)">
    <path d="M -52,8 C -36,4 -18,-2 -4,-8 C 8,-14 18,-24 22,-36 C 26,-48 24,-58 16,-62 C 8,-66 -2,-60 -8,-50 C -14,-40 -14,-26 -10,-12 C -6,2 0,18 6,34 C 12,50 16,64 12,74 C 8,84 -2,90 -14,88 C -26,86 -34,76 -36,62 C -38,48 -32,34 -20,24 C -8,14 8,8 24,6 C 38,4 52,6 62,10"
    fill="none" stroke="#6A8F6E" stroke-width="8" stroke-linecap="round" stroke-linejoin="round"/>
  </g>
</svg>
